<svg xmlns="http://www.w3.org/2000/svg" xmlns:xlink="http://www.w3.org/1999/xlink" width="52" height="52" viewBox="0 0 52 52">
    <defs>
        <path id="a" d="M0 .242h52v47.073H0z"/>
        <path id="c" d="M0 52.759h52V.999H0z"/>
    </defs>
    <g fill="none" fill-rule="evenodd" transform="translate(0 -1)">
        <g transform="translate(0 .759)">
            <mask id="b" fill="#fff">
                <use xlink:href="#a"/>
            </mask>
            <path fill="#2D6AE4" d="M3.487 26.167V.242H1.743v1.743H0v1.744h1.743v8.717H0v1.743h1.743v8.718H0v1.743h1.743v8.717H0v1.744h1.743V44.7c0 .48.39.872.872.872h9.59v1.743h1.742v-1.743h8.718v1.743h1.743v-1.743h8.718v1.743h1.743v-1.743h8.717v1.743h1.744v-1.743H52v-1.743H3.487V26.167z" mask="url(#b)"/>
        </g>
        <path fill="#2D6AE4" d="M5.227 11.69l-1.16-1.243L5.303 9.28l1.167 1.25-1.243 1.16zm2.39 2.432l-1.201-1.203L7.61 11.71l1.209 1.208-1.202 1.203zm2.309 2.43l-1.16-1.243 1.236-1.167 1.167 1.25-1.243 1.16zm4.66 5.362l-1.02-1.36 1.355-1.028 1.026 1.368-1.36 1.02zm2.124 2.673l-1.072-1.32 1.313-1.08 1.079 1.328-1.32 1.072zm2.078 2.668l-1.073-1.32 1.313-1.08 1.079 1.328-1.32 1.072zm2.03 2.662l-1.02-1.36 1.354-1.028 1.026 1.368-1.36 1.02zM30.724 28.508l-.655-1.568 1.58-.65.646 1.571-1.572.647zm-2.797 1.214l-.657-1.568 1.58-.65.647 1.571-1.57.647zm-2.799 1.214l-.654-1.569 1.58-.65.647 1.572-1.573.647zM36.698 29.127l-1.401-.963.956-1.407 1.408.969-.963 1.4zm2.59 1.894L37.929 30l1.013-1.366 1.368 1.026-1.02 1.36zm2.689 1.877l-1.401-.963.956-1.407 1.409.969-.964 1.4z"/>
        <path fill="#2D6AE4" d="M13.106 17.926a.672.672 0 1 0 0 1.344.672.672 0 0 0 0-1.344m0 3.044a2.375 2.375 0 0 1-2.372-2.372 2.375 2.375 0 0 1 2.372-2.372 2.375 2.375 0 0 1 2.372 2.372 2.375 2.375 0 0 1-2.372 2.372M22.794 30.369a.672.672 0 1 0 0 1.344.672.672 0 0 0 0-1.344m0 3.044a2.375 2.375 0 0 1-2.372-2.372 2.375 2.375 0 0 1 2.372-2.372 2.375 2.375 0 0 1 2.372 2.372 2.375 2.375 0 0 1-2.372 2.372M33.984 25.513a.672.672 0 1 0 .002 1.344.672.672 0 0 0-.002-1.344m0 3.043a2.374 2.374 0 0 1-2.372-2.37 2.375 2.375 0 0 1 2.372-2.373 2.375 2.375 0 0 1 2.372 2.372 2.374 2.374 0 0 1-2.372 2.371M44.544 33.055a.672.672 0 1 0 0 1.344.672.672 0 0 0 0-1.344m0 3.044a2.375 2.375 0 0 1-2.372-2.372 2.375 2.375 0 0 1 2.372-2.372 2.375 2.375 0 0 1 2.372 2.372 2.375 2.375 0 0 1-2.372 2.372"/>
        <mask id="d" fill="#fff">
            <use xlink:href="#c"/>
        </mask>
        <path fill="#2D6AE4" d="M16.578 52.759h1.741v-1.741h-1.741zM20.059 52.759H21.8v-1.741h-1.741zM23.541 52.759h1.74v-1.741h-1.74zM27.022 52.759h1.741v-1.741h-1.741zM30.503 52.759h1.741v-1.741h-1.741zM33.985 52.759h1.741v-1.741h-1.741zM44.544 12.188a.672.672 0 1 1 0-1.344.672.672 0 0 1 0 1.344m-10.56 7.542a.673.673 0 1 1 .003-1.345.673.673 0 0 1-.003 1.345m-11.19-4.856a.672.672 0 1 1 0-1.344.672.672 0 0 1 0 1.344M21.02 15.762a.065.065 0 0 0 .008.009l-.008-.009m-7.914 11.555a.672.672 0 1 1 0-1.344.672.672 0 0 1 0 1.344M44.544 9.145a2.374 2.374 0 0 0-2.372 2.371c0 .205.035.401.083.59l-6.964 4.975a2.363 2.363 0 0 0-2.996.317l-7.14-3.097c.003-.034.01-.065.01-.099a2.374 2.374 0 0 0-2.371-2.371 2.374 2.374 0 0 0-2.372 2.371c0 .447.132.861.348 1.218l-6.977 8.967a2.331 2.331 0 0 0-.686-.114 2.375 2.375 0 0 0-2.373 2.372c0 .357.085.692.227.996l-9.244 9.565 1.223 1.181 9.235-9.561a2.37 2.37 0 0 0 3.304-2.181c0-.447-.132-.86-.347-1.217l6.98-8.966c.218.066.443.112.682.112.663 0 1.262-.275 1.692-.714l-.002.002 7.139 3.098c-.001.033-.01.064-.01.098a2.374 2.374 0 0 0 2.37 2.372 2.374 2.374 0 0 0 2.373-2.372c0-.205-.034-.4-.083-.59l6.965-4.975c.375.249.824.395 1.306.395a2.375 2.375 0 0 0 2.372-2.372 2.374 2.374 0 0 0-2.372-2.371" mask="url(#d)"/>
    </g>
</svg>
